{
  "source": "C:\\Users\\Peter\\Desktop\\stuff\\MIUN\\quantitative_research\\video_compression\\videos\\HEVC_CLASS_B\\Kimono_1920x1080_24.y4m",
  "output": "C:\\Users\\Peter\\Desktop\\stuff\\MIUN\\quantitative_research\\video_compression\\compressed_videos\\HEVC_CLASS_B\\h264\\12\\Kimono_1920x1080_24_h264.mp4",
  "codec": "h264",
  "ok": "Input #0, yuv4mpegpipe, from 'C:\\Users\\Peter\\Desktop\\stuff\\MIUN\\quantitative_research\\video_compression\\videos\\HEVC_CLASS_B\\Kimono_1920x1080_24.y4m':\n  Duration: 00:00:10.00, start: 0.000000, bitrate: 597198 kb/s\n  Stream #0:0: Video: rawvideo (I420 / 0x30323449), yuv420p(progressive), 1920x1080, 24 fps, 24 tbr, 24 tbn\n[out#0/mp4 @ 00000219d154a840] Codec AVOption b:a (set bitrate (in bits/s)) has not been used for any stream. The most likely reason is either wrong type (e.g. a video option with no video streams) or that it is a private option of some decoder which was not actually used for any stream.\nStream mapping:\n  Stream #0:0 -> #0:0 (rawvideo (native) -> h264 (libx264))\nPress [q] to stop, [?] for help\n[libx264 @ 00000219d154cc80] using cpu capabilities: MMX2 SSE2Fast SSSE3 SSE4.2 AVX FMA3 BMI2 AVX2\n[libx264 @ 00000219d154cc80] profile High, level 5.0, 4:2:0, 8-bit\n[libx264 @ 00000219d154cc80] 264 - core 165 r3222 b35605a - H.264/MPEG-4 AVC codec - Copyleft 2003-2025 - http://www.videolan.org/x264.html - options: cabac=1 ref=5 deblock=1:0:0 analyse=0x3:0x113 me=hex subme=8 psy=1 psy_rd=1.00:0.00 mixed_ref=1 me_range=16 chroma_me=1 trellis=2 8x8dct=1 cqm=0 deadzone=21,11 fast_pskip=1 chroma_qp_offset=-2 threads=18 lookahead_threads=3 sliced_threads=0 nr=0 decimate=1 interlaced=0 bluray_compat=0 constrained_intra=0 bframes=3 b_pyramid=2 b_adapt=1 b_bias=0 direct=3 weightb=1 open_gop=0 weightp=2 keyint=250 keyint_min=24 scenecut=40 intra_refresh=0 rc_lookahead=50 rc=cbr mbtree=1 bitrate=12000 ratetol=1.0 qcomp=0.60 qpmin=0 qpmax=69 qpstep=4 vbv_maxrate=12000 vbv_bufsize=12000 nal_hrd=none filler=0 ip_ratio=1.40 aq=1:1.00\nOutput #0, mp4, to 'C:\\Users\\Peter\\Desktop\\stuff\\MIUN\\quantitative_research\\video_compression\\compressed_videos\\HEVC_CLASS_B\\h264\\12\\Kimono_1920x1080_24_h264.mp4':\n  Metadata:\n    encoder         : Lavf62.3.100\n  Stream #0:0: Video: h264 (avc1 / 0x31637661), yuv420p(tv, progressive), 1920x1080, q=2-31, 12000 kb/s, 24 fps, 12288 tbn\n    Metadata:\n      encoder         : Lavc62.11.100 libx264\n    Side data:\n      cpb: bitrate max/min/avg: 12000000/0/12000000 buffer size: 12000000 vbv_delay: N/A\nframe=    0 fps=0.0 q=0.0 size=       0KiB time=N/A bitrate=N/A speed=N/A elapsed=0:00:01.30    \nframe=    0 fps=0.0 q=0.0 size=       0KiB time=N/A bitrate=N/A speed=N/A elapsed=0:00:01.81    \nframe=    0 fps=0.0 q=0.0 size=       0KiB time=N/A bitrate=N/A speed=N/A elapsed=0:00:02.32    \nframe=    0 fps=0.0 q=0.0 size=       0KiB time=N/A bitrate=N/A speed=N/A elapsed=0:00:02.88    \nframe=    0 fps=0.0 q=0.0 size=       0KiB time=N/A bitrate=N/A speed=N/A elapsed=0:00:03.55    \nframe=    1 fps=0.2 q=26.0 size=       0KiB time=-00:00:00.04 bitrate=N/A speed=N/A elapsed=0:00:04.32    \nframe=    1 fps=0.2 q=26.0 size=       0KiB time=-00:00:00.04 bitrate=N/A speed=N/A elapsed=0:00:05.09    \nframe=    9 fps=1.6 q=25.0 size=     512KiB time=00:00:00.29 bitrate=14381.8kbits/s speed=0.0519x elapsed=0:00:05.62    \nframe=   17 fps=2.8 q=25.0 size=    1024KiB time=00:00:00.62 bitrate=13422.4kbits/s speed=0.102x elapsed=0:00:06.12    \nframe=   21 fps=3.2 q=25.0 size=    1024KiB time=00:00:00.79 bitrate=10596.6kbits/s speed=0.119x elapsed=0:00:06.65    \nframe=   21 fps=2.9 q=25.0 size=    1024KiB time=00:00:00.79 bitrate=10596.6kbits/s speed=0.111x elapsed=0:00:07.16    \nframe=   21 fps=2.7 q=25.0 size=    1024KiB time=00:00:00.79 bitrate=10596.6kbits/s speed=0.103x elapsed=0:00:07.67    \nframe=   21 fps=2.6 q=25.0 size=    1024KiB time=00:00:00.79 bitrate=10596.6kbits/s speed=0.0966x elapsed=0:00:08.19    \nframe=   21 fps=2.4 q=25.0 size=    1024KiB time=00:00:00.79 bitrate=10596.6kbits/s speed=0.091x elapsed=0:00:08.70    \nframe=   21 fps=2.3 q=25.0 size=    1024KiB time=00:00:00.79 bitrate=10596.6kbits/s speed=0.0858x elapsed=0:00:09.22    \nframe=   21 fps=2.2 q=25.0 size=    1024KiB time=00:00:00.79 bitrate=10596.6kbits/s speed=0.0813x elapsed=0:00:09.73    \nframe=   33 fps=3.2 q=23.0 size=    1536KiB time=00:00:01.29 bitrate=9741.9kbits/s speed=0.126x elapsed=0:00:10.25    \nframe=   37 fps=3.4 q=24.0 size=    1792KiB time=00:00:01.45 bitrate=10066.6kbits/s speed=0.135x elapsed=0:00:10.76    \nframe=   41 fps=3.6 q=24.0 size=    2048KiB time=00:00:01.62 bitrate=10324.7kbits/s speed=0.144x elapsed=0:00:11.28    \nframe=   45 fps=3.8 q=24.0 size=    2304KiB time=00:00:01.79 bitrate=10534.7kbits/s speed=0.152x elapsed=0:00:11.80    \nframe=   49 fps=4.0 q=24.0 size=    2560KiB time=00:00:01.95 bitrate=10709.1kbits/s speed=0.159x elapsed=0:00:12.31    \nframe=   53 fps=4.1 q=24.0 size=    2816KiB time=00:00:02.12 bitrate=10856.0kbits/s speed=0.166x elapsed=0:00:12.83    \nframe=   57 fps=4.3 q=24.0 size=    2816KiB time=00:00:02.29 bitrate=10066.5kbits/s speed=0.172x elapsed=0:00:13.35    \nframe=   61 fps=4.4 q=24.0 size=    3072KiB time=00:00:02.45 bitrate=10237.1kbits/s speed=0.177x elapsed=0:00:13.87    \nframe=   61 fps=4.2 q=24.0 size=    3072KiB time=00:00:02.45 bitrate=10237.1kbits/s speed=0.171x elapsed=0:00:14.37    \nframe=   65 fps=4.4 q=24.0 size=    3328KiB time=00:00:02.62 bitrate=10386.0kbits/s speed=0.176x elapsed=0:00:14.89    \nframe=   65 fps=4.2 q=24.0 size=    3328KiB time=00:00:02.62 bitrate=10386.0kbits/s speed=0.17x elapsed=0:00:15.42    \nframe=   65 fps=4.1 q=24.0 size=    3328KiB time=00:00:02.62 bitrate=10386.0kbits/s speed=0.165x elapsed=0:00:15.92    \nframe=   69 fps=4.2 q=24.0 size=    3584KiB time=00:00:02.79 bitrate=10517.2kbits/s speed=0.17x elapsed=0:00:16.44    \nframe=   73 fps=4.3 q=24.0 size=    3840KiB time=00:00:02.95 bitrate=10633.6kbits/s speed=0.175x elapsed=0:00:16.95    \nframe=   81 fps=4.6 q=24.0 size=    4352KiB time=00:00:03.29 bitrate=10831.0kbits/s speed=0.188x elapsed=0:00:17.47    \nframe=   89 fps=4.9 q=24.0 size=    4864KiB time=00:00:03.62 bitrate=10992.1kbits/s speed=0.202x elapsed=0:00:17.98    \nframe=   89 fps=4.8 q=24.0 size=    4864KiB time=00:00:03.62 bitrate=10992.1kbits/s speed=0.196x elapsed=0:00:18.50    \nframe=   89 fps=4.7 q=24.0 size=    4864KiB time=00:00:03.62 bitrate=10992.1kbits/s speed=0.191x elapsed=0:00:19.02    \nframe=   90 fps=4.6 q=24.0 size=    4864KiB time=00:00:03.66 bitrate=10867.2kbits/s speed=0.188x elapsed=0:00:19.53    \nframe=   90 fps=4.5 q=24.0 size=    4864KiB time=00:00:03.66 bitrate=10867.2kbits/s speed=0.183x elapsed=0:00:20.05    \nframe=   90 fps=4.4 q=24.0 size=    4864KiB time=00:00:03.66 bitrate=10867.2kbits/s speed=0.178x elapsed=0:00:20.57    \nframe=   97 fps=4.6 q=23.0 size=    5120KiB time=00:00:03.95 bitrate=10596.2kbits/s speed=0.188x elapsed=0:00:21.08    \nframe=  105 fps=4.9 q=23.0 size=    5632KiB time=00:00:04.29 bitrate=10750.5kbits/s speed=0.199x elapsed=0:00:21.60    \nframe=  109 fps=4.9 q=23.0 size=    5888KiB time=00:00:04.45 bitrate=10819.0kbits/s speed=0.202x elapsed=0:00:22.11    \nframe=  109 fps=4.8 q=23.0 size=    5888KiB time=00:00:04.45 bitrate=10819.0kbits/s speed=0.197x elapsed=0:00:22.62    \nframe=  109 fps=4.7 q=23.0 size=    5888KiB time=00:00:04.45 bitrate=10819.0kbits/s speed=0.193x elapsed=0:00:23.13    \nframe=  113 fps=4.8 q=23.0 size=    6144KiB time=00:00:04.62 bitrate=10882.6kbits/s speed=0.195x elapsed=0:00:23.66    \nframe=  113 fps=4.7 q=23.0 size=    6144KiB time=00:00:04.62 bitrate=10882.6kbits/s speed=0.191x elapsed=0:00:24.17    \nframe=  121 fps=4.9 q=23.0 size=    6656KiB time=00:00:04.95 bitrate=10996.9kbits/s speed=0.201x elapsed=0:00:24.69    \nframe=  129 fps=5.1 q=23.0 size=    6912KiB time=00:00:05.29 bitrate=10700.5kbits/s speed=0.21x elapsed=0:00:25.20    \nframe=  133 fps=5.2 q=23.0 size=    7168KiB time=00:00:05.45 bitrate=10758.0kbits/s speed=0.212x elapsed=0:00:25.72    \nframe=  133 fps=5.1 q=23.0 size=    7168KiB time=00:00:05.45 bitrate=10758.0kbits/s speed=0.208x elapsed=0:00:26.24    \nframe=  137 fps=5.1 q=23.0 size=    7424KiB time=00:00:05.62 bitrate=10812.1kbits/s speed=0.21x elapsed=0:00:26.75    \nframe=  145 fps=5.3 q=23.0 size=    8192KiB time=00:00:05.95 bitrate=11263.1kbits/s speed=0.218x elapsed=0:00:27.34    \nframe=  149 fps=5.3 q=23.0 size=    8448KiB time=00:00:06.12 bitrate=11299.0kbits/s speed=0.22x elapsed=0:00:27.89    \nframe=  154 fps=5.4 q=22.0 size=    8448KiB time=00:00:06.29 bitrate=10999.7kbits/s speed=0.221x elapsed=0:00:28.44    \nframe=  157 fps=5.4 q=22.0 size=    8704KiB time=00:00:06.45 bitrate=11040.6kbits/s speed=0.223x elapsed=0:00:28.98    \nframe=  165 fps=5.6 q=22.0 size=    8960KiB time=00:00:06.79 bitrate=10807.5kbits/s speed=0.23x elapsed=0:00:29.50    \nframe=  169 fps=5.6 q=22.0 size=    9216KiB time=00:00:06.95 bitrate=10850.0kbits/s speed=0.231x elapsed=0:00:30.12    \nframe=  177 fps=5.8 q=23.0 size=    9472KiB time=00:00:07.29 bitrate=10641.6kbits/s speed=0.237x elapsed=0:00:30.75    \nframe=  181 fps=5.8 q=22.0 size=    9728KiB time=00:00:07.45 bitrate=10685.0kbits/s speed=0.238x elapsed=0:00:31.33    \nframe=  185 fps=5.8 q=22.0 size=    9984KiB time=00:00:07.62 bitrate=10726.5kbits/s speed=0.239x elapsed=0:00:31.84    \nframe=  185 fps=5.7 q=22.0 size=    9984KiB time=00:00:07.62 bitrate=10726.5kbits/s speed=0.236x elapsed=0:00:32.37    \nframe=  185 fps=5.6 q=22.0 size=    9984KiB time=00:00:07.62 bitrate=10726.5kbits/s speed=0.232x elapsed=0:00:32.89    \nframe=  188 fps=5.6 q=22.0 size=   10240KiB time=00:00:07.70 bitrate=10882.6kbits/s speed=0.231x elapsed=0:00:33.42    \nframe=  193 fps=5.7 q=22.0 size=   10240KiB time=00:00:07.95 bitrate=10540.7kbits/s speed=0.234x elapsed=0:00:33.95    \nframe=  194 fps=5.6 q=22.0 size=   10496KiB time=00:00:08.00 bitrate=10748.0kbits/s speed=0.232x elapsed=0:00:34.47    \nframe=  197 fps=5.6 q=22.0 size=   10496KiB time=00:00:08.12 bitrate=10582.6kbits/s speed=0.232x elapsed=0:00:35.00    \nframe=  205 fps=5.8 q=22.0 size=   11008KiB time=00:00:08.45 bitrate=10661.4kbits/s speed=0.238x elapsed=0:00:35.53    \nframe=  205 fps=5.7 q=22.0 size=   11008KiB time=00:00:08.45 bitrate=10661.4kbits/s speed=0.234x elapsed=0:00:36.07    \nframe=  209 fps=5.7 q=22.0 size=   11264KiB time=00:00:08.50 bitrate=10855.9kbits/s speed=0.232x elapsed=0:00:36.59    \nframe=  217 fps=5.8 q=20.0 size=   11776KiB time=00:00:08.95 bitrate=10768.7kbits/s speed=0.241x elapsed=0:00:37.16    \nframe=  219 fps=5.8 q=20.0 size=   11776KiB time=00:00:09.00 bitrate=10718.8kbits/s speed=0.239x elapsed=0:00:37.69    \nframe=  229 fps=6.0 q=-1.0 size=   12544KiB time=00:00:09.45 bitrate=10864.6kbits/s speed=0.248x elapsed=0:00:38.21    \nframe=  229 fps=5.9 q=-1.0 size=   12544KiB time=00:00:09.45 bitrate=10864.6kbits/s speed=0.244x elapsed=0:00:38.81    \nframe=  229 fps=5.8 q=-1.0 size=   12544KiB time=00:00:09.45 bitrate=10864.6kbits/s speed=0.24x elapsed=0:00:39.35    \nframe=  237 fps=5.9 q=-1.0 size=   12800KiB time=00:00:09.79 bitrate=10708.9kbits/s speed=0.245x elapsed=0:00:39.90    \n[mp4 @ 00000219d154b940] Starting second pass: moving the moov atom to the beginning of the file\n[out#0/mp4 @ 00000219d154a840] video:13182KiB audio:0KiB subtitle:0KiB other streams:0KiB global headers:0KiB muxing overhead: 0.029069%\nframe=  240 fps=6.0 q=-1.0 Lsize=   13186KiB time=00:00:09.91 bitrate=10892.9kbits/s speed=0.248x elapsed=0:00:39.98    \n[libx264 @ 00000219d154cc80] frame I:2     Avg QP:18.04  size:361252\n[libx264 @ 00000219d154cc80] frame P:60    Avg QP:21.05  size:116570\n[libx264 @ 00000219d154cc80] frame B:178   Avg QP:23.48  size: 32479\n[libx264 @ 00000219d154cc80] consecutive B-frames:  0.8%  0.0%  2.5% 96.7%\n[libx264 @ 00000219d154cc80] mb I  I16..4:  1.4% 88.1% 10.5%\n[libx264 @ 00000219d154cc80] mb P  I16..4:  0.1%  7.9%  0.5%  P16..4: 41.7% 33.1% 14.9%  0.0%  0.0%    skip: 1.8%\n[libx264 @ 00000219d154cc80] mb B  I16..4:  0.0%  0.3%  0.0%  B16..8: 53.8% 11.6%  3.2%  direct: 6.6%  skip:24.5%  L0:42.3% L1:48.0% BI: 9.7%\n[libx264 @ 00000219d154cc80] 8x8 transform intra:91.5% inter:73.6%\n[libx264 @ 00000219d154cc80] direct mvs  spatial:94.4% temporal:5.6%\n[libx264 @ 00000219d154cc80] coded y,uvDC,uvAC intra: 97.1% 96.6% 86.0% inter: 36.5% 38.6% 6.5%\n[libx264 @ 00000219d154cc80] i16 v,h,dc,p: 29% 14% 21% 37%\n[libx264 @ 00000219d154cc80] i8 v,h,dc,ddl,ddr,vr,hd,vl,hu:  9%  7%  4% 10% 15% 14% 15% 12% 14%\n[libx264 @ 00000219d154cc80] i4 v,h,dc,ddl,ddr,vr,hd,vl,hu:  9%  5%  3%  9% 16% 15% 16% 13% 14%\n[libx264 @ 00000219d154cc80] i8c dc,h,v,p: 55% 17% 13% 15%\n[libx264 @ 00000219d154cc80] Weighted P-Frames: Y:0.0% UV:0.0%\n[libx264 @ 00000219d154cc80] ref P L0: 51.5% 15.0% 19.8%  7.1%  6.6%\n[libx264 @ 00000219d154cc80] ref B L0: 84.2% 10.8%  3.7%  1.3%\n[libx264 @ 00000219d154cc80] ref B L1: 96.6%  3.4%\n[libx264 @ 00000219d154cc80] kb/s:10798.40\n",
  "seconds": 40.8539183139801,
  "probe_out": {}
}